<svg xmlns="http://www.w3.org/2000/svg" width="1024" height="1024" viewBox="0 0 1024 1024">
  <defs>
    <filter id="shadow" x="-30%" y="-30%" width="160%" height="170%">
      <feDropShadow dx="0" dy="34" stdDeviation="34" flood-color="#111525" flood-opacity="0.28"/>
      <feDropShadow dx="0" dy="8" stdDeviation="10" flood-color="#111525" flood-opacity="0.18"/>
    </filter>
    <pattern id="weave" width="18" height="18" patternUnits="userSpaceOnUse">
      <path d="M0 4H18M0 13H18" stroke="#7e8490" stroke-width="1" opacity="0.10"/>
      <path d="M4 0V18M13 0V18" stroke="#ffffff" stroke-width="1" opacity="0.48"/>
    </pattern>
    <linearGradient id="paper" x1="0" y1="0" x2="1" y2="1">
      <stop offset="0" stop-color="#ffffff"/>
      <stop offset="0.52" stop-color="#f6f6f3"/>
      <stop offset="1" stop-color="#dfe1e4"/>
    </linearGradient>
    <mask id="perforated">
      <rect x="108" y="108" width="808" height="808" rx="164" fill="white"/>
      <g fill="black">
        <circle cx="236" cy="170" r="16"/><circle cx="328" cy="170" r="16"/><circle cx="420" cy="170" r="16"/>
        <circle cx="512" cy="170" r="16"/><circle cx="604" cy="170" r="16"/><circle cx="696" cy="170" r="16"/><circle cx="788" cy="170" r="16"/>
        <circle cx="236" cy="854" r="16"/><circle cx="328" cy="854" r="16"/><circle cx="420" cy="854" r="16"/>
        <circle cx="512" cy="854" r="16"/><circle cx="604" cy="854" r="16"/><circle cx="696" cy="854" r="16"/><circle cx="788" cy="854" r="16"/>
        <circle cx="170" cy="236" r="16"/><circle cx="170" cy="328" r="16"/><circle cx="170" cy="420" r="16"/>
        <circle cx="170" cy="512" r="16"/><circle cx="170" cy="604" r="16"/><circle cx="170" cy="696" r="16"/><circle cx="170" cy="788" r="16"/>
        <circle cx="854" cy="236" r="16"/><circle cx="854" cy="328" r="16"/><circle cx="854" cy="420" r="16"/>
        <circle cx="854" cy="512" r="16"/><circle cx="854" cy="604" r="16"/><circle cx="854" cy="696" r="16"/><circle cx="854" cy="788" r="16"/>
      </g>
    </mask>
  </defs>
  <g filter="url(#shadow)">
    <g mask="url(#perforated)">
      <rect x="108" y="108" width="808" height="808" rx="164" fill="url(#paper)"/>
      <rect x="108" y="108" width="808" height="808" rx="164" fill="url(#weave)"/>
      <path d="M164 296V204a40 40 0 0 1 40-40h92M728 164h92a40 40 0 0 1 40 40v92M860 728v92a40 40 0 0 1-40 40h-92M296 860h-92a40 40 0 0 1-40-40v-92" fill="none" stroke="#ffffff" stroke-width="5" opacity="0.78"/>
      <rect x="204" y="204" width="616" height="616" rx="106" fill="#ffffff" opacity="0.20"/>
      <rect x="204" y="204" width="616" height="616" rx="106" fill="none" stroke="#8f949f" stroke-width="3" opacity="0.20"/>
    </g>
    <rect x="108" y="108" width="808" height="808" rx="164" fill="none" stroke="#272c3a" stroke-width="10" opacity="0.26"/>
  </g>
</svg>

